HIERARCHY
ROOT pelvis
{
  OFFSET 0 100 0
  CHANNELS 6 Xposition Yposition Zposition Zrotation Xrotation Yrotation
  JOINT pelvis_right_femur
  {
    OFFSET -10.78128 -3.44521 -0.5502486
    CHANNELS 3 Zrotation Xrotation Yrotation
    JOINT right_femur_tibia
    {
      OFFSET -0.8047443 -44.0398 -0.1307829
      CHANNELS 3 Zrotation Xrotation Yrotation
      JOINT right_tibia_foot
      {
        OFFSET 3.006224 -47.83518 -5
        CHANNELS 3 Zrotation Xrotation Yrotation
        End Site
        {
          OFFSET 0 -5 15
        }
      }
    }
  }
  JOINT pelvis_left_femur
  {
    OFFSET 10.78128 -3.44521 -0.5502486
    CHANNELS 3 Zrotation Xrotation Yrotation
    JOINT left_femur_tibia
    {
      OFFSET 0.8047443 -44.0398 -0.1307829
      CHANNELS 3 Zrotation Xrotation Yrotation
      JOINT left_tibia_foot
      {
        OFFSET -4.370144 -48.10324 -4.275266
        CHANNELS 3 Zrotation Xrotation Yrotation
        End Site
        {
          OFFSET 0 -5 15
        }
      }
    }
  }
  JOINT pelvis_spine1
  {
    OFFSET 0 6.468898 -3.129235
    CHANNELS 3 Zrotation Xrotation Yrotation
    JOINT spine1
    {
      OFFSET 0 23.15396 4.99043
      CHANNELS 3 Zrotation Xrotation Yrotation
      JOINT spine2
      {
        OFFSET 0 20.79997 -5.064912
        CHANNELS 3 Zrotation Xrotation Yrotation
        JOINT neck
        {
          OFFSET 0 14.38658 9.616178
          CHANNELS 3 Zrotation Xrotation Yrotation
          End Site
          {
            OFFSET 0 20 0
          }
        }
      }
      JOINT right_manubrium
      {
        OFFSET -5.722621 16.35077 3.967754
        CHANNELS 3 Zrotation Xrotation Yrotation
        JOINT right_clavicle
        {
          OFFSET -13.16364 1.694482 -4.693211
          CHANNELS 3 Zrotation Xrotation Yrotation
          JOINT right_humerus
          {
            OFFSET -28.5034 -0.3100689 -2.792744
            CHANNELS 3 Zrotation Xrotation Yrotation
            JOINT right_radius
            {
              OFFSET -25.15693 0.02248979 -1.271978
              CHANNELS 3 Zrotation Xrotation Yrotation
              End Site
              {
                OFFSET -15 0 0
              }
            }
          }
        }
      }
      JOINT left_manubrium
      {
        OFFSET 5.722621 16.35077 3.967754
        CHANNELS 3 Zrotation Xrotation Yrotation
        JOINT left_clavicle
        {
          OFFSET 13.16364 1.694482 -4.693211
          CHANNELS 3 Zrotation Xrotation Yrotation
          JOINT left_humerus
          {
            OFFSET 29.39168 -1.063119 -2.237045
            CHANNELS 3 Zrotation Xrotation Yrotation
            JOINT left_radius
            {
              OFFSET 24.59957 -0.9528479 0.9047498
              CHANNELS 3 Zrotation Xrotation Yrotation
              End Site
              {
                OFFSET 15 -0 -0
              }
            }
          }
        }
      }
    }
  }
}
MOTION
Frames: 15
Frame Time: 0.0416666666667
0 103.5113 0 2.180145 -1.162528 0.2654554 1.228377 -10.12842 8.685106 -0 34.09395 -0 -5.275202 -17.8672 -2.262948 -8.035402 10.08179 -23.4722 -0 5.164183 -0 7.668683 -16.17585 26.5431 -4.347515 -5.04347 4.965823 2.034787 9.204453 -7.740195 0.8435767 22.79091 7.171045 3.263342 -23.11347 8.801552 6.368269 -19.75182 11.57169 86.31079 35.94558 -19.79505 -0 0 16.24743 -7.58221 8.247835 4.622307 5.514931 -19.47565 -1.70638 -94.78537 29.75381 22.89564 0 0 -16.016 3.49678 17.89832 9.5651
0.3579231 103.4937 1.390693 2.033306 -0.9664982 0.4168275 1.450545 -11.17408 8.479969 -0 32.8623 -0 -5.331962 -17.2735 -2.072168 -7.906136 10.19095 -23.28309 -0 5.279704 -0 7.512742 -16.48898 26.30047 -4.305038 -4.835889 4.939586 2.149053 9.152785 -7.749984 0.8855998 22.64202 7.180169 3.313518 -23.26827 8.8181 6.338371 -19.67512 11.56379 86.30282 35.92283 -19.85269 -0 0 16.12953 -7.630533 8.290145 4.653234 5.623377 -19.51664 -1.725197 -94.68989 29.72498 22.67896 0 0 -16.34922 3.5433 17.80031 9.541208
0.7474713 103.4025 2.907578 1.843842 -0.6640484 0.4840307 1.720481 -12.60879 8.152391 -0 30.64921 -0 -5.40165 -16.3673 -1.6979 -7.749202 10.32913 -22.98353 -0 5.493115 -0 7.277753 -16.93157 25.92417 -4.26029 -4.552503 4.925381 2.31447 9.073083 -7.750933 0.9517014 22.4199 7.188152 3.390049 -23.48431 8.836661 6.283645 -19.54988 11.55157 86.30431 35.8902 -19.94565 -0 0 15.94083 -7.700086 8.354246 4.695823 5.798411 -19.58789 -1.744191 -94.54449 29.67843 22.34151 0 0 -16.85588 3.611126 17.65968 9.490224
1.175836 103.2113 4.602603 1.646555 -0.2532659 0.4713767 1.984618 -14.27618 7.703275 -0 27.35171 -0 -5.475808 -15.1723 -1.12334 -7.597609 10.48955 -22.559 -0 5.861115 -0 6.952024 -17.46485 25.38951 -4.219867 -4.229405 4.931419 2.507464 8.967287 -7.735075 1.039048 22.14435 7.192133 3.489112 -23.74056 8.853067 6.196213 -19.37019 11.52872 86.33523 35.84882 -20.07823 -0 0 15.6735 -7.789605 8.442013 4.749319 6.030807 -19.69675 -1.754424 -94.34297 29.61208 21.88981 0 0 -17.5029 3.69367 17.47832 9.41283
1.644526 102.9015 6.533304 1.478257 0.2635364 0.412224 2.190238 -15.98837 7.13817 -0 22.95533 -0 -5.550466 -13.73265 -0.3539497 -7.48386 10.66781 -21.99424 -0 6.460455 -0 6.515671 -18.03429 24.66307 -4.185054 -3.909192 4.960533 2.697612 8.83879 -7.697018 1.141858 21.84246 7.190002 3.604491 -24.01211 8.862607 6.069175 -19.13049 11.48712 86.41956 35.79996 -20.25499 -0 0 15.31936 -7.898297 8.556231 4.813885 6.301776 -19.84836 -1.74706 -94.07921 29.52318 21.33959 0 0 -18.23858 3.781842 17.25672 9.315498
2.149814 102.4694 8.758697 1.353457 0.8689705 0.3563884 2.317196 -17.5611 6.480836 -0 17.68238 -0 -5.639286 -12.13724 0.5660316 -7.413933 10.85106 -21.2898 -0 7.379365 -0 5.941229 -18.5555 23.71915 -4.14229 -3.625894 5.003867 2.863359 8.69282 -7.643394 1.249251 21.53788 7.182306 3.727261 -24.27748 8.859431 5.905979 -18.83105 11.42375 86.57247 35.74535 -20.47749 -0 0 14.87623 -8.025732 8.699396 4.890339 6.579544 -20.03273 -1.722006 -93.76194 29.4069 20.72794 0 0 -18.99428 3.865757 16.99565 9.212185
2.68213 101.943 11.33825 1.255974 1.523649 0.3568426 2.392282 -18.76292 5.790472 -0 12.11017 -0 -5.776955 -10.55647 1.538625 -7.354408 11.00846 -20.46338 -0 8.770303 -0 5.178108 -18.87206 22.52797 -4.050888 -3.409744 5.03391 2.992244 8.53699 -7.600288 1.340241 21.2527 7.173426 3.842987 -24.51538 8.833243 5.725124 -18.47666 11.34174 86.80275 35.68845 -20.74674 -0 0 14.34415 -8.172683 8.875849 4.980962 6.805505 -20.21505 -1.692698 -93.42218 29.25392 20.12924 0 0 -19.6623 3.931867 16.69437 9.130801
3.226811 101.3896 14.33129 1.153551 2.174439 0.4603866 2.471088 -19.34065 5.146851 -0 6.976189 -0 -5.998072 -9.199449 2.444486 -7.25305 11.09182 -19.54174 -0 10.8278 -0 4.174286 -18.78442 21.06712 -3.858034 -3.286499 5.017766 3.07691 8.380947 -7.60027 1.389545 21.00802 7.168685 3.934596 -24.70391 8.770817 5.552384 -18.07479 11.24887 87.11361 35.63379 -21.06086 -0 0 13.72547 -8.341643 9.090968 5.089445 6.909507 -20.34889 -1.6795 -93.10121 29.05366 19.6344 0 0 -20.12015 3.965497 16.35146 9.104819
3.770061 100.8965 17.78543 1.025168 2.763364 0.692114 2.592697 -19.13172 4.607288 -0 2.759518 -0 -6.310345 -8.209261 3.207345 -7.082762 11.02089 -18.55443 -0 13.70479 -0 2.932738 -18.13582 19.36773 -3.538068 -3.259982 4.953616 3.115017 8.238204 -7.648811 1.383116 20.81989 7.167467 3.990328 -24.82321 8.661117 5.406227 -17.63847 11.16036 87.48989 35.58529 -21.39987 -0 0 13.03697 -8.538889 9.346756 5.221083 6.854011 -20.40514 -1.694848 -92.82876 28.80101 19.30095 0 0 -20.30464 3.959396 15.96953 9.150427
4.305347 100.5479 21.71309 0.8743102 3.208164 1.027477 2.756821 -18.03367 4.19977 0 -0.377531 0 -6.697214 -7.664625 3.799557 -6.855599 10.62687 -17.53489 -0 17.57387 -0 1.519181 -16.78894 17.52883 -3.101553 -3.304597 4.892703 3.10692 8.133137 -7.705703 1.32001 20.70506 7.158889 4.003162 -24.84595 8.491681 5.296492 -17.18991 11.10757 87.88688 35.54858 -21.70937 -0 0 12.31886 -8.780561 9.642504 5.386592 6.64146 -20.37552 -1.73882 -92.62256 28.49445 19.14853 0 0 -20.22492 3.91384 15.55606 9.261962
4.833818 100.4146 26.07699 0.7279456 3.412756 1.379121 2.932012 -15.97132 3.931098 0 -2.464916 0 -7.130082 -7.607684 4.221532 -6.602522 9.680607 -16.51689 -0 22.60544 -0 0.03993471 -14.63744 15.69467 -2.583465 -3.376456 4.91695 3.053569 8.096094 -7.704606 1.20725 20.68198 7.126037 3.969565 -24.73931 8.249385 5.227268 -16.75877 11.12979 88.24021 35.53148 -21.91171 -0 0 11.62691 -9.090681 9.975837 5.601137 6.298321 -20.2648 -1.803069 -92.49157 28.13364 19.17383 0 0 -19.9323 3.833492 15.12096 9.421023
5.358536 100.5487 30.8011 0.6324222 3.319812 1.633401 3.066794 -12.9515 3.779388 0 -3.682828 0 -7.569301 -8.028013 4.49806 -6.347733 8.005017 -15.52256 -0 28.7353 -0 -1.37507 -11.75356 14.02301 -2.042527 -3.431906 5.088786 2.954938 8.14472 -7.596732 1.058948 20.76276 7.055378 3.893987 -24.48297 7.93097 5.195438 -16.38148 11.24617 88.484 35.54005 -21.93147 -0 0 11.01956 -9.493751 10.34034 5.878981 5.86587 -20.09129 -1.873614 -92.42568 27.72134 19.35131 0 0 -19.49534 3.728259 14.6739 9.604432
5.88167 100.9624 35.78141 0.6623712 2.911893 1.711214 3.075694 -9.0535 3.687966 0 -4.395396 0 -7.947693 -8.867095 4.688552 -6.111667 5.440507 -14.56044 -0 35.52675 -0 -2.56888 -8.496702 12.69101 -1.586736 -3.423546 5.449525 2.805621 8.28141 -7.355945 0.9004533 20.95775 6.935453 3.791569 -24.06598 7.544455 5.190434 -16.11797 11.44776 88.52981 35.57869 -21.67101 -0 0 10.57607 -10.02588 10.72377 6.239304 5.407169 -19.89323 -1.927338 -92.38572 27.2629 19.62845 0 0 -19.00614 3.616504 14.22445 9.781716
6.406481 101.6111 40.89328 0.8997671 2.195369 1.608121 2.862074 -4.394868 3.593904 0 -5.065143 0 -8.17877 -10.04222 4.875334 -5.909517 1.835468 -13.63126 -0 42.29395 -0 -3.400155 -5.400612 11.85803 -1.352612 -3.305369 6.025928 2.596112 8.498561 -6.970234 0.7635178 21.27552 6.756283 3.683242 -23.48237 7.104713 5.196927 -16.04395 11.70851 88.27229 35.64837 -21.01429 -0 0 10.39251 -10.73293 11.10951 6.706149 4.99776 -19.71925 -1.936609 -92.31699 26.76512 19.93991 0 0 -18.56824 3.520439 13.78183 9.919388
6.938491 102.4065 46.01397 1.36334 1.220237 1.380453 2.39659 0.8521023 3.477939 0 -5.988048 0 -8.204691 -11.46423 5.117339 -5.725797 -2.793833 -12.72619 -0 48.34397 -0 -3.826477 -2.851853 11.58353 -1.408265 -3.069961 6.799893 2.323151 8.775706 -6.452949 0.667472 21.70258 6.520329 3.583428 -22.74609 6.633095 5.194775 -16.20398 11.99698 87.65288 35.7373 -19.8993 -0 0 10.53505 -11.64147 11.48045 7.293712 4.689844 -19.59485 -1.886473 -92.18833 26.23706 20.24546 0 0 -18.24013 3.450684 13.35152 10.00143
